<svg width="22" height="22" viewBox="0 0 22 22" fill="none" xmlns="http://www.w3.org/2000/svg">
<path d="M18.3256 2.49326C18.3228 2.48055 18.3151 2.47052 18.3113 2.45853C18.305 2.43794 18.2968 2.41807 18.2868 2.39909C18.2753 2.37725 18.2615 2.35684 18.2458 2.33786C18.2331 2.3221 18.2191 2.30742 18.2039 2.29382C18.1854 2.27824 18.1652 2.26481 18.1437 2.25353C18.1257 2.24261 18.1065 2.2333 18.0866 2.2256C18.0628 2.21808 18.0381 2.21307 18.0132 2.21056C17.998 2.20609 17.9824 2.20251 17.9667 2.2H16.1179C16.0234 0.923649 15.4312 0 14.6667 0C13.9022 0 13.3099 0.923649 13.2154 2.2H12.4513C12.3567 0.923649 11.7645 0 11 0C10.2355 0 9.64326 0.923649 9.54873 2.2H8.7846C8.69007 0.923649 8.09782 0 7.33333 0C6.56885 0 5.9766 0.923649 5.88206 2.2H5.11794C5.02341 0.923649 4.43115 0 3.66667 0C2.90218 0 2.30993 0.923649 2.2154 2.2H0.366667C0.164176 2.2 0 2.36418 0 2.56667V21.6333C0 21.8358 0.164176 22 0.366667 22H17.9667C18.1692 22 18.3333 21.8358 18.3333 21.6333V20.5333H21.6333C21.7434 20.5333 21.8476 20.4837 21.9171 20.3985C21.9868 20.3131 22.0143 20.2012 21.9923 20.0933L18.3256 2.49326ZM14.6667 0.733333C14.9315 0.733333 15.301 1.29515 15.3825 2.2H13.9523C14.0323 1.29515 14.4019 0.733333 14.6667 0.733333ZM11 0.733333C11.2648 0.733333 11.6343 1.29515 11.7158 2.2H10.2856C10.3657 1.29515 10.7352 0.733333 11 0.733333ZM7.33333 0.733333C7.59813 0.733333 7.96766 1.29515 8.04912 2.2H6.61898C6.69901 1.29515 7.06854 0.733333 7.33333 0.733333ZM3.66667 0.733333C3.93146 0.733333 4.30099 1.29515 4.38245 2.2H2.95231C3.03234 1.29515 3.40187 0.733333 3.66667 0.733333ZM0.733333 2.93333H2.2154C2.30993 4.20968 2.90218 5.13333 3.66667 5.13333C3.86916 5.13333 4.03333 4.96916 4.03333 4.76667C4.03333 4.56418 3.86916 4.4 3.66667 4.4C3.40187 4.4 3.03234 3.83818 2.95088 2.93333H5.88206C5.97785 4.20968 6.56885 5.13333 7.33333 5.13333C7.53582 5.13333 7.7 4.96916 7.7 4.76667C7.7 4.56418 7.53582 4.4 7.33333 4.4C7.06854 4.4 6.69901 3.83818 6.61755 2.93333H9.54873C9.64452 4.20968 10.2355 5.13333 11 5.13333C11.2025 5.13333 11.3667 4.96916 11.3667 4.76667C11.3667 4.56418 11.2025 4.4 11 4.4C10.7352 4.4 10.3657 3.83818 10.2842 2.93333H13.2154C13.3112 4.20968 13.9022 5.13333 14.6667 5.13333C14.8692 5.13333 15.0333 4.96916 15.0333 4.76667C15.0333 4.56418 14.8692 4.4 14.6667 4.4C14.4019 4.4 14.0323 3.83818 13.9509 2.93333H17.6V6.6H0.733333V2.93333ZM17.6 21.2667H0.733333V7.33333H17.6V21.2667ZM18.3333 19.8V6.1234L21.1827 19.8H18.3333Z" fill="#9F9F9F"/>
<path d="M8.06673 13.2H6.60007C6.39757 13.2 6.2334 13.3641 6.2334 13.5666V15.0333C6.2334 15.2358 6.39757 15.4 6.60007 15.4H8.06673C8.26922 15.4 8.4334 15.2358 8.4334 15.0333V13.5666C8.4334 13.3641 8.26922 13.2 8.06673 13.2ZM7.70007 14.6666H6.96673V13.9333H7.70007V14.6666Z" fill="#9F9F9F"/>
<path d="M11.7337 13.2H10.2671C10.0646 13.2 9.90039 13.3641 9.90039 13.5666V15.0333C9.90039 15.2358 10.0646 15.4 10.2671 15.4H11.7337C11.9362 15.4 12.1004 15.2358 12.1004 15.0333V13.5666C12.1004 13.3641 11.9362 13.2 11.7337 13.2ZM11.3671 14.6666H10.6337V13.9333H11.3671V14.6666Z" fill="#9F9F9F"/>
<path d="M4.39974 13.2H2.93307C2.73058 13.2 2.56641 13.3641 2.56641 13.5666V15.0333C2.56641 15.2358 2.73058 15.4 2.93307 15.4H4.39974C4.60223 15.4 4.76641 15.2358 4.76641 15.0333V13.5666C4.76641 13.3641 4.60223 13.2 4.39974 13.2ZM4.03307 14.6666H3.29974V13.9333H4.03307V14.6666Z" fill="#9F9F9F"/>
<path d="M8.06673 16.8667H6.60007C6.39757 16.8667 6.2334 17.0309 6.2334 17.2334V18.7C6.2334 18.9025 6.39757 19.0667 6.60007 19.0667H8.06673C8.26922 19.0667 8.4334 18.9025 8.4334 18.7V17.2334C8.4334 17.0309 8.26922 16.8667 8.06673 16.8667ZM7.70007 18.3334H6.96673V17.6H7.70007V18.3334Z" fill="#9F9F9F"/>
<path d="M11.7337 16.8667H10.2671C10.0646 16.8667 9.90039 17.0309 9.90039 17.2334V18.7C9.90039 18.9025 10.0646 19.0667 10.2671 19.0667H11.7337C11.9362 19.0667 12.1004 18.9025 12.1004 18.7V17.2334C12.1004 17.0309 11.9362 16.8667 11.7337 16.8667ZM11.3671 18.3334H10.6337V17.6H11.3671V18.3334Z" fill="#9F9F9F"/>
<path d="M4.39974 16.8667H2.93307C2.73058 16.8667 2.56641 17.0309 2.56641 17.2334V18.7C2.56641 18.9025 2.73058 19.0667 2.93307 19.0667H4.39974C4.60223 19.0667 4.76641 18.9025 4.76641 18.7V17.2334C4.76641 17.0309 4.60223 16.8667 4.39974 16.8667ZM4.03307 18.3334H3.29974V17.6H4.03307V18.3334Z" fill="#9F9F9F"/>
<path d="M8.06673 9.5332H6.60007C6.39757 9.5332 6.2334 9.69738 6.2334 9.89987V11.3665C6.2334 11.569 6.39757 11.7332 6.60007 11.7332H8.06673C8.26922 11.7332 8.4334 11.569 8.4334 11.3665V9.89987C8.4334 9.69738 8.26922 9.5332 8.06673 9.5332ZM7.70007 10.9999H6.96673V10.2665H7.70007V10.9999Z" fill="#9F9F9F"/>
<path d="M11.7337 9.5332H10.2671C10.0646 9.5332 9.90039 9.69738 9.90039 9.89987V11.3665C9.90039 11.569 10.0646 11.7332 10.2671 11.7332H11.7337C11.9362 11.7332 12.1004 11.569 12.1004 11.3665V9.89987C12.1004 9.69738 11.9362 9.5332 11.7337 9.5332ZM11.3671 10.9999H10.6337V10.2665H11.3671V10.9999Z" fill="#9F9F9F"/>
<path d="M15.3997 13.2H13.9331C13.7306 13.2 13.5664 13.3641 13.5664 13.5666V15.0333C13.5664 15.2358 13.7306 15.4 13.9331 15.4H15.3997C15.6022 15.4 15.7664 15.2358 15.7664 15.0333V13.5666C15.7664 13.3641 15.6022 13.2 15.3997 13.2ZM15.0331 14.6666H14.2997V13.9333H15.0331V14.6666Z" fill="#9F9F9F"/>
<path d="M15.3997 16.8667H13.9331C13.7306 16.8667 13.5664 17.0309 13.5664 17.2334V18.7C13.5664 18.9025 13.7306 19.0667 13.9331 19.0667H15.3997C15.6022 19.0667 15.7664 18.9025 15.7664 18.7V17.2334C15.7664 17.0309 15.6022 16.8667 15.3997 16.8667ZM15.0331 18.3334H14.2997V17.6H15.0331V18.3334Z" fill="#9F9F9F"/>
<path d="M15.3997 9.5332H13.9331C13.7306 9.5332 13.5664 9.69738 13.5664 9.89987V11.3665C13.5664 11.569 13.7306 11.7332 13.9331 11.7332H15.3997C15.6022 11.7332 15.7664 11.569 15.7664 11.3665V9.89987C15.7664 9.69738 15.6022 9.5332 15.3997 9.5332ZM15.0331 10.9999H14.2997V10.2665H15.0331V10.9999Z" fill="#9F9F9F"/>
<path d="M4.39974 9.5332H2.93307C2.73058 9.5332 2.56641 9.69738 2.56641 9.89987V11.3665C2.56641 11.569 2.73058 11.7332 2.93307 11.7332H4.39974C4.60223 11.7332 4.76641 11.569 4.76641 11.3665V9.89987C4.76641 9.69738 4.60223 9.5332 4.39974 9.5332ZM4.03307 10.9999H3.29974V10.2665H4.03307V10.9999Z" fill="#9F9F9F"/>
</svg>
