<svg width="15" height="13" viewBox="0 0 15 13" fill="none" xmlns="http://www.w3.org/2000/svg">
<path d="M1.4397 4.23998C1.62945 4.37387 2.20142 4.77155 3.15564 5.43279C4.1099 6.09404 4.84092 6.60318 5.34874 6.96024C5.40453 6.99938 5.52307 7.08447 5.7044 7.21561C5.88576 7.34683 6.03646 7.45288 6.15637 7.53377C6.27637 7.61463 6.42144 7.70534 6.59172 7.80575C6.76194 7.90608 6.9224 7.98155 7.07307 8.0315C7.22376 8.08187 7.36326 8.10682 7.49159 8.10682H7.5H7.50844C7.63677 8.10682 7.77632 8.08184 7.92702 8.0315C8.07763 7.98155 8.23823 7.90599 8.40831 7.80575C8.57847 7.70522 8.72354 7.6146 8.84354 7.53377C8.96354 7.45288 9.11412 7.34683 9.29554 7.21561C9.47684 7.08435 9.59552 6.99938 9.65132 6.96024C10.1646 6.60318 11.4705 5.69633 13.5687 4.2398C13.976 3.95533 14.3164 3.61207 14.5897 3.21026C14.8633 2.80863 15 2.3873 15 1.9465C15 1.57814 14.8674 1.26282 14.6023 1.00057C14.3372 0.73826 14.0233 0.607178 13.6607 0.607178H1.33923C0.909571 0.607178 0.578919 0.752245 0.347334 1.04238C0.115778 1.33257 0 1.6953 0 2.13053C0 2.48208 0.153511 2.86304 0.460385 3.27318C0.76723 3.68334 1.09378 4.00564 1.4397 4.23998Z" fill="#7761AA"/>
<path d="M14.1628 5.1355C12.3327 6.37422 10.943 7.33692 9.99445 8.02338C9.67638 8.25766 9.41835 8.44055 9.22019 8.5716C9.02202 8.70274 8.75848 8.83667 8.42918 8.97332C8.09999 9.11018 7.79321 9.1784 7.50856 9.1784H7.50002H7.49161C7.20702 9.1784 6.90006 9.11018 6.57087 8.97332C6.24168 8.83667 5.97797 8.70274 5.77986 8.5716C5.58182 8.44055 5.3237 8.25766 5.00566 8.02338C4.25226 7.47096 2.86557 6.50821 0.84551 5.1355C0.527348 4.92358 0.245541 4.68068 0 4.40729V11.0533C0 11.4218 0.131082 11.737 0.393393 11.9993C0.655645 12.2616 0.970992 12.3928 1.33932 12.3928H13.6608C14.029 12.3928 14.3443 12.2616 14.6066 11.9993C14.869 11.7369 15 11.4219 15 11.0533V4.40729C14.76 4.67502 14.4811 4.91792 14.1628 5.1355Z" fill="#7761AA"/>
</svg>
