<svg width="30" height="30" viewBox="0 0 30 30" fill="none" xmlns="http://www.w3.org/2000/svg">
<path d="M26.4023 1.11328H7.10621C6.99743 1.11328 6.89311 1.15649 6.81619 1.23341C6.73927 1.31033 6.69605 1.41466 6.69605 1.52344V5.25984H3.59668C3.48792 5.25991 3.38363 5.30314 3.30672 5.38004C3.22982 5.45695 3.18659 5.56124 3.18652 5.67V28.4766C3.18652 28.5853 3.22974 28.6897 3.30666 28.7666C3.38357 28.8435 3.4879 28.8867 3.59668 28.8867H22.8946C23.0034 28.8867 23.1078 28.8435 23.1847 28.7666C23.2616 28.6897 23.3048 28.5853 23.3048 28.4766V24.7406H26.4023C26.5111 24.7406 26.6154 24.6974 26.6923 24.6205C26.7692 24.5436 26.8125 24.4392 26.8125 24.3305V1.52344C26.8125 1.46957 26.8019 1.41622 26.7813 1.36644C26.7607 1.31666 26.7305 1.27144 26.6924 1.23334C26.6543 1.19525 26.6091 1.16504 26.5593 1.14444C26.5095 1.12384 26.4562 1.11325 26.4023 1.11328ZM4.00777 28.0664V6.08016H22.4845V24.3213V24.3305C22.4845 24.3305 22.4845 24.3363 22.4845 24.3394V28.0659L4.00777 28.0664ZM25.9921 23.9203H23.3048V5.67C23.3047 5.56124 23.2615 5.45695 23.1846 5.38004C23.1077 5.30314 23.0034 5.25991 22.8946 5.25984H7.51637V1.93359H25.9921V23.9203Z" fill="#7761AA"/>
<path d="M19.984 8.22656H15C14.8912 8.22656 14.7869 8.26978 14.71 8.3467C14.6331 8.42361 14.5898 8.52794 14.5898 8.63672C14.5898 8.7455 14.6331 8.84982 14.71 8.92674C14.7869 9.00366 14.8912 9.04688 15 9.04688H19.984C20.0928 9.04688 20.1971 9.00366 20.274 8.92674C20.3509 8.84982 20.3941 8.7455 20.3941 8.63672C20.3941 8.52794 20.3509 8.42361 20.274 8.3467C20.1971 8.26978 20.0928 8.22656 19.984 8.22656Z" fill="#7761AA"/>
<path d="M19.9844 12.4453H6.50781C6.39903 12.4453 6.29471 12.4885 6.21779 12.5654C6.14087 12.6424 6.09766 12.7467 6.09766 12.8555C6.09766 12.9642 6.14087 13.0686 6.21779 13.1455C6.29471 13.2224 6.39903 13.2656 6.50781 13.2656H19.9844C20.0932 13.2656 20.1975 13.2224 20.2744 13.1455C20.3513 13.0686 20.3945 12.9642 20.3945 12.8555C20.3945 12.7467 20.3513 12.6424 20.2744 12.5654C20.1975 12.4885 20.0932 12.4453 19.9844 12.4453Z" fill="#7761AA"/>
<path d="M19.9844 14.5547H6.50781C6.45395 14.5547 6.40062 14.5653 6.35085 14.5859C6.30109 14.6065 6.25587 14.6367 6.21779 14.6748C6.1797 14.7129 6.14949 14.7581 6.12888 14.8079C6.10827 14.8576 6.09766 14.911 6.09766 14.9648C6.09766 15.0187 6.10827 15.072 6.12888 15.1218C6.14949 15.1716 6.1797 15.2168 6.21779 15.2549C6.25587 15.293 6.30109 15.3232 6.35085 15.3438C6.40062 15.3644 6.45395 15.375 6.50781 15.375H19.9844C20.0932 15.375 20.1975 15.3318 20.2744 15.2549C20.3513 15.178 20.3945 15.0736 20.3945 14.9648C20.3945 14.8561 20.3513 14.7517 20.2744 14.6748C20.1975 14.5979 20.0932 14.5547 19.9844 14.5547Z" fill="#7761AA"/>
<path d="M19.9844 16.6641H6.50781C6.39903 16.6641 6.29471 16.7073 6.21779 16.7842C6.14087 16.8611 6.09766 16.9654 6.09766 17.0742C6.09766 17.183 6.14087 17.2873 6.21779 17.3642C6.29471 17.4412 6.39903 17.4844 6.50781 17.4844H19.9844C20.0932 17.4844 20.1975 17.4412 20.2744 17.3642C20.3513 17.2873 20.3945 17.183 20.3945 17.0742C20.3945 16.9654 20.3513 16.8611 20.2744 16.7842C20.1975 16.7073 20.0932 16.6641 19.9844 16.6641Z" fill="#7761AA"/>
<path d="M19.9844 18.7734H6.50781C6.39903 18.7734 6.29471 18.8167 6.21779 18.8936C6.14087 18.9705 6.09766 19.0748 6.09766 19.1836C6.09766 19.2924 6.14087 19.3967 6.21779 19.4736C6.29471 19.5505 6.39903 19.5938 6.50781 19.5938H19.9844C20.0932 19.5938 20.1975 19.5505 20.2744 19.4736C20.3513 19.3967 20.3945 19.2924 20.3945 19.1836C20.3945 19.0748 20.3513 18.9705 20.2744 18.8936C20.1975 18.8167 20.0932 18.7734 19.9844 18.7734Z" fill="#7761AA"/>
<path d="M19.9844 20.8828H6.50781C6.39903 20.8828 6.29471 20.926 6.21779 21.0029C6.14087 21.0799 6.09766 21.1842 6.09766 21.293C6.09766 21.4017 6.14087 21.5061 6.21779 21.583C6.29471 21.6599 6.39903 21.7031 6.50781 21.7031H19.9844C20.0932 21.7031 20.1975 21.6599 20.2744 21.583C20.3513 21.5061 20.3945 21.4017 20.3945 21.293C20.3945 21.1842 20.3513 21.0799 20.2744 21.0029C20.1975 20.926 20.0932 20.8828 19.9844 20.8828Z" fill="#7761AA"/>
<path d="M19.9844 22.9922H6.50781C6.39903 22.9922 6.29471 23.0354 6.21779 23.1123C6.14087 23.1892 6.09766 23.2936 6.09766 23.4023C6.09766 23.5111 6.14087 23.6155 6.21779 23.6924C6.29471 23.7693 6.39903 23.8125 6.50781 23.8125H19.9844C20.0932 23.8125 20.1975 23.7693 20.2744 23.6924C20.3513 23.6155 20.3945 23.5111 20.3945 23.4023C20.3945 23.2936 20.3513 23.1892 20.2744 23.1123C20.1975 23.0354 20.0932 22.9922 19.9844 22.9922Z" fill="#7761AA"/>
<path d="M17.4607 25.1016H9.03027C8.92149 25.1016 8.81717 25.1448 8.74025 25.2217C8.66333 25.2986 8.62012 25.4029 8.62012 25.5117C8.62012 25.6205 8.66333 25.7248 8.74025 25.8017C8.81717 25.8787 8.92149 25.9219 9.03027 25.9219H17.4607C17.5695 25.9219 17.6739 25.8787 17.7508 25.8017C17.8277 25.7248 17.8709 25.6205 17.8709 25.5117C17.8709 25.4029 17.8277 25.2986 17.7508 25.2217C17.6739 25.1448 17.5695 25.1016 17.4607 25.1016Z" fill="#7761AA"/>
</svg>
