<svg width="25" height="25" viewBox="0 0 25 25" fill="none" xmlns="http://www.w3.org/2000/svg">
<path d="M18.3463 16.1378C19.5766 14.4578 20.3124 12.3943 20.3124 10.1572C20.3124 4.55727 15.7561 0.000991821 10.1562 0.000991821C4.55623 0.000991821 0 4.55727 0 10.1572C0 15.7572 4.55628 20.3134 10.1562 20.3134C12.3933 20.3134 14.457 19.5775 16.137 18.3473L22.7905 25.0008L25 22.7914C25 22.7913 18.3463 16.1378 18.3463 16.1378ZM10.1562 17.1884C6.27897 17.1884 3.12501 14.0345 3.12501 10.1572C3.12501 6.27996 6.27897 3.126 10.1562 3.126C14.0335 3.126 17.1874 6.27996 17.1874 10.1572C17.1874 14.0345 14.0334 17.1884 10.1562 17.1884Z" fill="white"/>
</svg>
