<svg width="15" height="15" viewBox="0 0 15 15" fill="none" xmlns="http://www.w3.org/2000/svg">
<path d="M12.4948 1.69995C12.4928 1.69128 12.4876 1.68445 12.485 1.67627C12.4807 1.66223 12.4751 1.64868 12.4683 1.63574C12.4605 1.62085 12.4511 1.60693 12.4403 1.59399C12.4316 1.58325 12.4221 1.57324 12.4117 1.56396C12.3992 1.55334 12.3854 1.54419 12.3707 1.5365C12.3584 1.52905 12.3453 1.52271 12.3318 1.51746C12.3156 1.51233 12.2987 1.50891 12.2817 1.5072C12.2714 1.50415 12.2607 1.50171 12.25 1.5H10.9895C10.925 0.629761 10.5212 0 10 0C9.47876 0 9.07495 0.629761 9.0105 1.5H8.4895C8.42505 0.629761 8.02124 0 7.5 0C6.97876 0 6.57495 0.629761 6.5105 1.5H5.9895C5.92505 0.629761 5.52124 0 5 0C4.47876 0 4.07495 0.629761 4.0105 1.5H3.4895C3.42505 0.629761 3.02124 0 2.5 0C1.97876 0 1.57495 0.629761 1.5105 1.5H0.25C0.111938 1.5 0 1.61194 0 1.75V14.75C0 14.8881 0.111938 15 0.25 15H12.25C12.3881 15 12.5 14.8881 12.5 14.75V14H14.75C14.8251 14 14.8961 13.9662 14.9435 13.9081C14.991 13.8499 15.0098 13.7736 14.9948 13.7L12.4948 1.69995ZM10 0.5C10.1805 0.5 10.4325 0.883057 10.488 1.5H9.51294C9.56751 0.883057 9.81946 0.5 10 0.5ZM7.5 0.5C7.68054 0.5 7.9325 0.883057 7.98804 1.5H7.01294C7.06751 0.883057 7.31946 0.5 7.5 0.5ZM5 0.5C5.18054 0.5 5.4325 0.883057 5.48804 1.5H4.51294C4.56751 0.883057 4.81946 0.5 5 0.5ZM2.5 0.5C2.68054 0.5 2.9325 0.883057 2.98804 1.5H2.01294C2.06751 0.883057 2.31946 0.5 2.5 0.5ZM0.5 2H1.5105C1.57495 2.87024 1.97876 3.5 2.5 3.5C2.63806 3.5 2.75 3.38806 2.75 3.25C2.75 3.11194 2.63806 3 2.5 3C2.31946 3 2.06751 2.61694 2.01196 2H4.0105C4.07581 2.87024 4.47876 3.5 5 3.5C5.13806 3.5 5.25 3.38806 5.25 3.25C5.25 3.11194 5.13806 3 5 3C4.81946 3 4.56751 2.61694 4.51196 2H6.5105C6.57581 2.87024 6.97876 3.5 7.5 3.5C7.63806 3.5 7.75 3.38806 7.75 3.25C7.75 3.11194 7.63806 3 7.5 3C7.31946 3 7.06751 2.61694 7.01196 2H9.0105C9.07581 2.87024 9.47876 3.5 10 3.5C10.1381 3.5 10.25 3.38806 10.25 3.25C10.25 3.11194 10.1381 3 10 3C9.81946 3 9.56751 2.61694 9.51196 2H12V4.5H0.5V2ZM12 14.5H0.5V5H12V14.5ZM12.5 13.5V4.17505L14.4428 13.5H12.5Z" fill="#9F9F9F"/>
<path d="M5.5 9H4.5C4.36194 9 4.25 9.11194 4.25 9.25V10.25C4.25 10.3881 4.36194 10.5 4.5 10.5H5.5C5.63806 10.5 5.75 10.3881 5.75 10.25V9.25C5.75 9.11194 5.63806 9 5.5 9ZM5.25 10H4.75V9.5H5.25V10Z" fill="#9F9F9F"/>
<path d="M8 9H7C6.86194 9 6.75 9.11194 6.75 9.25V10.25C6.75 10.3881 6.86194 10.5 7 10.5H8C8.13806 10.5 8.25 10.3881 8.25 10.25V9.25C8.25 9.11194 8.13806 9 8 9ZM7.75 10H7.25V9.5H7.75V10Z" fill="#9F9F9F"/>
<path d="M3 9H2C1.86194 9 1.75 9.11194 1.75 9.25V10.25C1.75 10.3881 1.86194 10.5 2 10.5H3C3.13806 10.5 3.25 10.3881 3.25 10.25V9.25C3.25 9.11194 3.13806 9 3 9ZM2.75 10H2.25V9.5H2.75V10Z" fill="#9F9F9F"/>
<path d="M5.5 11.5H4.5C4.36194 11.5 4.25 11.6119 4.25 11.75V12.75C4.25 12.8881 4.36194 13 4.5 13H5.5C5.63806 13 5.75 12.8881 5.75 12.75V11.75C5.75 11.6119 5.63806 11.5 5.5 11.5ZM5.25 12.5H4.75V12H5.25V12.5Z" fill="#9F9F9F"/>
<path d="M8 11.5H7C6.86194 11.5 6.75 11.6119 6.75 11.75V12.75C6.75 12.8881 6.86194 13 7 13H8C8.13806 13 8.25 12.8881 8.25 12.75V11.75C8.25 11.6119 8.13806 11.5 8 11.5ZM7.75 12.5H7.25V12H7.75V12.5Z" fill="#9F9F9F"/>
<path d="M3 11.5H2C1.86194 11.5 1.75 11.6119 1.75 11.75V12.75C1.75 12.8881 1.86194 13 2 13H3C3.13806 13 3.25 12.8881 3.25 12.75V11.75C3.25 11.6119 3.13806 11.5 3 11.5ZM2.75 12.5H2.25V12H2.75V12.5Z" fill="#9F9F9F"/>
<path d="M5.5 6.5H4.5C4.36194 6.5 4.25 6.61194 4.25 6.75V7.75C4.25 7.88806 4.36194 8 4.5 8H5.5C5.63806 8 5.75 7.88806 5.75 7.75V6.75C5.75 6.61194 5.63806 6.5 5.5 6.5ZM5.25 7.5H4.75V7H5.25V7.5Z" fill="#9F9F9F"/>
<path d="M8 6.5H7C6.86194 6.5 6.75 6.61194 6.75 6.75V7.75C6.75 7.88806 6.86194 8 7 8H8C8.13806 8 8.25 7.88806 8.25 7.75V6.75C8.25 6.61194 8.13806 6.5 8 6.5ZM7.75 7.5H7.25V7H7.75V7.5Z" fill="#9F9F9F"/>
<path d="M10.5 9H9.5C9.36194 9 9.25 9.11194 9.25 9.25V10.25C9.25 10.3881 9.36194 10.5 9.5 10.5H10.5C10.6381 10.5 10.75 10.3881 10.75 10.25V9.25C10.75 9.11194 10.6381 9 10.5 9ZM10.25 10H9.75V9.5H10.25V10Z" fill="#9F9F9F"/>
<path d="M10.5 11.5H9.5C9.36194 11.5 9.25 11.6119 9.25 11.75V12.75C9.25 12.8881 9.36194 13 9.5 13H10.5C10.6381 13 10.75 12.8881 10.75 12.75V11.75C10.75 11.6119 10.6381 11.5 10.5 11.5ZM10.25 12.5H9.75V12H10.25V12.5Z" fill="#9F9F9F"/>
<path d="M10.5 6.5H9.5C9.36194 6.5 9.25 6.61194 9.25 6.75V7.75C9.25 7.88806 9.36194 8 9.5 8H10.5C10.6381 8 10.75 7.88806 10.75 7.75V6.75C10.75 6.61194 10.6381 6.5 10.5 6.5ZM10.25 7.5H9.75V7H10.25V7.5Z" fill="#9F9F9F"/>
<path d="M3 6.5H2C1.86194 6.5 1.75 6.61194 1.75 6.75V7.75C1.75 7.88806 1.86194 8 2 8H3C3.13806 8 3.25 7.88806 3.25 7.75V6.75C3.25 6.61194 3.13806 6.5 3 6.5ZM2.75 7.5H2.25V7H2.75V7.5Z" fill="#9F9F9F"/>
</svg>
