<svg width="26" height="23" viewBox="0 0 26 23" fill="none" xmlns="http://www.w3.org/2000/svg">
<path d="M12.8785 8.27802C11.4689 8.27802 10.3262 9.41973 10.3262 10.8282C10.3262 12.2365 11.4689 13.3783 12.8785 13.3783C14.2881 13.3783 15.4308 12.2366 15.4308 10.8282C15.4308 9.41973 14.2881 8.27802 12.8785 8.27802ZM12.8785 12.1639C12.1401 12.1639 11.5416 11.5658 11.5416 10.8281C11.5416 10.0904 12.1401 9.49231 12.8785 9.49231C13.6169 9.49231 14.2154 10.0904 14.2154 10.8281C14.2154 11.5658 13.6169 12.1639 12.8785 12.1639Z" fill="#626262"/>
<path d="M23.0571 2.44912L6.46712 0.566929C5.82325 0.475466 5.17089 0.663272 4.67446 1.08305C4.17808 1.46761 3.85989 2.03765 3.7933 2.66168L3.48948 5.1511H2.5475C1.21056 5.1511 0.207852 6.33506 0.207852 7.67086V20.0875C0.174179 21.3613 1.18037 22.4213 2.45532 22.4549C2.48602 22.4557 2.51679 22.4559 2.5475 22.4555H19.2286C20.5656 22.4555 21.781 21.4233 21.781 20.0875V19.6018C22.1955 19.5218 22.5887 19.3564 22.9356 19.1161C23.4279 18.7019 23.7431 18.1154 23.8167 17.4767L25.2145 5.1511C25.3569 3.81223 24.3953 2.60781 23.0571 2.44912ZM20.5656 20.0875C20.5656 20.7554 19.8971 21.2412 19.2286 21.2412H2.5475C1.94364 21.2589 1.43976 20.7841 1.42202 20.1808C1.42109 20.1497 1.4215 20.1186 1.42324 20.0875V17.841L6.13289 14.3801C6.69865 13.9461 7.49553 13.9847 8.01675 14.4712L11.3287 17.3856C11.8316 17.8075 12.4647 18.0434 13.1214 18.0535C13.6348 18.0598 14.1398 17.9232 14.5799 17.6588L20.5656 14.198V20.0875H20.5656ZM20.5656 12.7711L13.9417 16.6267C13.3729 16.9633 12.653 16.9024 12.149 16.4749L8.80671 13.5301C7.84879 12.7076 6.44869 12.6572 5.434 13.4086L1.42324 16.323V7.67086C1.42324 7.00296 1.87903 6.36546 2.5475 6.36546H19.2286C19.9428 6.39503 20.5196 6.95822 20.5656 7.67086V12.7711ZM24.0002 4.98718C23.9998 4.99119 23.9995 4.99526 23.999 4.99927L22.5709 17.3249C22.5734 17.6445 22.4275 17.9472 22.1759 18.1446C22.0544 18.266 21.7809 18.3267 21.7809 18.3875V7.67086C21.7329 6.28782 20.6133 5.18243 19.2286 5.1511H4.70481L4.97827 2.78313C5.0376 2.47649 5.19805 2.19861 5.43406 1.99378C5.70054 1.80969 6.02274 1.72387 6.34563 1.75089L22.9053 3.66347C23.5734 3.72687 24.0637 4.31951 24.0002 4.98718Z" fill="#626262"/>
</svg>
