<svg width="47" height="27" viewBox="0 0 47 27" fill="none" xmlns="http://www.w3.org/2000/svg">
<path d="M20.6729 0.816133C20.0373 0.289257 19.2378 0.000663433 18.4122 0H16.1952C16.073 0.000331716 15.9743 0.0995154 15.9746 0.221698C15.9747 0.27046 15.991 0.317895 16.0208 0.356484L21.5983 7.51536L28.8297 7.52698L20.6729 0.816133Z" fill="#7C67AD"/>
<path d="M43.74 9.28807H43.7386L8.13943 9.24716C6.97821 9.25192 5.90201 8.63935 5.31321 7.63845L2.19088 3.86352C1.95613 3.57901 1.60628 3.41437 1.23741 3.41493C0.554077 3.41482 0.000110572 3.96878 0 4.65212C0 4.83124 0.0388108 5.00827 0.113889 5.17081L3.49341 12.493C3.49983 12.5069 3.50591 12.521 3.51155 12.5351C3.70826 13.0595 4.17388 13.436 4.72784 13.5186L21.5781 15.334C22.0639 15.3865 22.4152 15.8227 22.3628 16.3083C22.3425 16.4956 22.2631 16.6716 22.136 16.8106L13.5644 26.1775C13.4878 26.2726 13.503 26.4118 13.598 26.4884C13.6372 26.52 13.686 26.5372 13.7363 26.5373H16.9904C17.8394 26.5373 18.66 26.2321 19.3028 25.6775C19.3098 25.6714 19.3167 25.6665 19.3239 25.66L30.6354 16.4916C30.7974 16.3608 31.0002 16.2909 31.2084 16.2944L43.7473 16.5214C45.5415 16.5168 47 14.8874 47 12.9047C47.0001 10.8856 45.5681 9.28807 43.74 9.28807Z" fill="#7C67AD"/>
</svg>
