<svg width="20" height="25" viewBox="0 0 20 25" fill="none" xmlns="http://www.w3.org/2000/svg">
<path d="M3.70945 25V20.24H0.664453V17.965H3.70945V14.85H0.664453V12.19H3.70945V0.00999838H10.2895C13.3461 0.00999838 15.6095 0.628332 17.0795 1.865C18.5728 3.10167 19.3195 4.89833 19.3195 7.255C19.3195 9.635 18.5145 11.5017 16.9045 12.855C15.2945 14.185 12.9261 14.85 9.79945 14.85H6.85945V17.965H12.6345V20.24H6.85945V25H3.70945ZM6.85945 12.19H9.34445C11.4678 12.19 13.1128 11.84 14.2795 11.14C15.4695 10.44 16.0645 9.18 16.0645 7.36C16.0645 5.77333 15.5745 4.595 14.5945 3.825C13.6145 3.055 12.0861 2.67 10.0095 2.67H6.85945V12.19Z" fill="#3E3E3E"/>
</svg>
