<svg width="23" height="25" viewBox="0 0 23 25" fill="none" xmlns="http://www.w3.org/2000/svg">
<path fill-rule="evenodd" clip-rule="evenodd" d="M21.7484 10.0916H5.07534L21.09 5.45635C21.2144 5.4203 21.3194 5.33619 21.382 5.22289C21.4447 5.10941 21.4595 4.97589 21.4235 4.85153L20.5854 1.96095C20.2506 0.806427 19.1747 0 17.969 0C17.7149 0 17.4618 0.0360489 17.2163 0.107002L2.18018 4.459C1.48473 4.66022 0.908412 5.12218 0.556969 5.75943C0.205716 6.39668 0.123248 7.13043 0.324646 7.82509L1.14341 10.6491V22.2826C1.14341 23.781 2.36344 25 3.86294 25H9.73535C10.0053 25 10.224 24.7814 10.224 24.5117C10.224 24.242 10.0053 24.0234 9.73535 24.0234H3.86313C2.90234 24.0234 2.12081 23.2426 2.12081 22.2826V15.6378H4.62443H4.62558H4.62653H8.45366H8.4548H8.45595H12.2831H12.2842H12.2854H16.1125H16.1136H16.1146H21.2597V22.2826C21.2597 23.2426 20.4781 24.0234 19.5173 24.0234H13.6449C13.3752 24.0234 13.1562 24.242 13.1562 24.5117C13.1562 24.7814 13.3752 25 13.6449 25H19.5173C21.017 25 22.2371 23.781 22.2371 22.2826V10.5799C22.2371 10.3102 22.0183 10.0916 21.7484 10.0916ZM13.131 14.6612L15.2074 11.0682H17.9081L15.8319 14.6612H13.131ZM9.30163 14.6612L11.378 11.0682H14.0787L12.0025 14.6612H9.30163ZM5.4724 14.6612L7.54861 11.0682H10.2494L8.17304 14.6612H5.4724ZM7.28937 8.34007L3.81235 5.00336L6.41754 4.24938C6.43587 4.27608 6.45725 4.30126 6.48168 4.32472L9.9587 7.66144L7.35351 8.41541C7.33519 8.38871 7.31362 8.36334 7.28937 8.34007ZM13.8379 2.19555L17.315 5.53226L14.7098 6.28624C14.6914 6.25954 14.6701 6.23417 14.6456 6.2109L11.1686 2.87418L13.7738 2.12021C13.7921 2.14691 13.8135 2.17209 13.8379 2.19555ZM10.1597 3.26023L13.6367 6.59676L11.0315 7.35092C11.0132 7.32422 10.9918 7.29885 10.9674 7.27558L7.49039 3.93887L10.0956 3.18489C10.1141 3.2114 10.1355 3.23677 10.1597 3.26023ZM17.4883 1.04504C17.6452 0.999641 17.8069 0.976562 17.969 0.976562C18.7423 0.976562 19.432 1.49307 19.6466 2.23274L20.3487 4.65412L18.388 5.22156C18.3695 5.19485 18.3481 5.16968 18.3237 5.14622L14.8468 1.80969L17.4883 1.04504ZM1.41315 6.23055C1.63841 5.8218 2.00741 5.52578 2.4522 5.39703L2.73932 5.31387C2.75783 5.34058 2.77921 5.36594 2.80346 5.38921L6.28047 8.72593L1.96561 9.97486L1.26348 7.55348C1.13463 7.10926 1.18789 6.63948 1.41315 6.23055ZM2.12081 11.0682H6.42002L4.34381 14.6612H2.12081V11.0682ZM16.9605 14.6612L19.0367 11.0682H21.2597V14.6612H16.9605Z" fill="white"/>
<path fill-rule="evenodd" clip-rule="evenodd" d="M15.0697 19.7809C15.0697 19.6064 14.9766 19.4452 14.8254 19.358L10.5319 16.8814C10.3807 16.7942 10.1944 16.7942 10.0432 16.8814C9.89199 16.9685 9.79883 17.1297 9.79883 17.3042V22.2576C9.79883 22.4319 9.89199 22.5931 10.0432 22.6803C10.1188 22.7239 10.2032 22.7459 10.2875 22.7459C10.3719 22.7459 10.4563 22.7239 10.5319 22.6803L14.8254 20.2038C14.9766 20.1166 15.0697 19.9554 15.0697 19.7809ZM10.7762 21.4119V18.1499L13.6036 19.7809L10.7762 21.4119Z" fill="white"/>
<path fill-rule="evenodd" clip-rule="evenodd" d="M11.6895 24.0234C11.4205 24.0234 11.2012 24.2428 11.2012 24.5117C11.2012 24.7807 11.4205 25 11.6895 25C11.9586 25 12.1777 24.7807 12.1777 24.5117C12.1777 24.2428 11.9586 24.0234 11.6895 24.0234Z" fill="white"/>
</svg>
