<svg width="44" height="28" viewBox="0 0 44 28" fill="none" xmlns="http://www.w3.org/2000/svg">
<path d="M39.4701 8.87418L29.0768 8.85757L20.6546 1.92813C19.7981 1.21937 18.7213 0.831356 17.6096 0.830688H15.6962C14.6421 0.830879 13.7878 1.68555 13.788 2.73967C13.7881 3.16433 13.9298 3.57687 14.1907 3.91192L18.0304 8.84001L8.74509 8.82513C8.33283 8.8195 7.95607 8.59094 7.76063 8.22793C7.73344 8.1804 7.70233 8.13536 7.6674 8.09318L4.93305 4.78816C3.95308 3.60225 2.19727 3.43525 1.01127 4.41522C0.0362612 5.22103 -0.273504 6.58262 0.25699 7.73093L3.16416 14.03C3.57394 15.0463 4.49493 15.7666 5.58006 15.9195C5.58798 15.9205 5.596 15.9216 5.60392 15.9224L18.2827 17.2884L12.1493 23.9915C12.1437 23.9976 12.1383 24.0038 12.1328 24.01C11.4421 24.8063 11.5276 26.0116 12.3238 26.7024C12.6707 27.0034 13.1144 27.1691 13.5737 27.1693H16.3822C17.5218 27.1692 18.6236 26.7615 19.4887 26.0199L28.9698 18.335L39.4512 18.5248H39.4686C41.9672 18.5248 44 16.3601 44 13.6993C44 10.994 42.0104 8.87542 39.4701 8.87418ZM15.6966 2.73928H17.6096C18.2779 2.73986 18.9251 2.97356 19.4395 3.40013L26.0671 8.8529L20.453 8.84412L15.6966 2.73928ZM39.4763 16.6164L28.6565 16.4205C28.4319 16.4166 28.213 16.4919 28.0383 16.6333L18.2759 24.5462L18.2531 24.5653C17.7331 25.0143 17.0691 25.2613 16.3821 25.2613H13.5746L20.9638 17.1865C21.3197 16.7977 21.293 16.194 20.9042 15.8383C20.7542 15.7009 20.5643 15.6151 20.362 15.5934L5.82245 14.0262C5.41363 13.9631 5.07085 13.6837 4.92646 13.2961C4.92036 13.2808 4.91377 13.2657 4.90738 13.2507L1.99019 6.93113C1.7873 6.4913 1.9794 5.97015 2.41933 5.76737C2.78063 5.60075 3.20882 5.69818 3.46238 6.0047L6.14844 9.25179C6.69239 10.1662 7.67933 10.7248 8.74327 10.7202L39.4673 10.7555H39.4689C40.9396 10.7555 42.0917 12.0504 42.0917 13.6859C42.0914 15.2914 40.919 16.6118 39.4763 16.6164Z" fill="white"/>
</svg>
