<svg width="44" height="44" viewBox="0 0 44 44" fill="none" xmlns="http://www.w3.org/2000/svg">
<path d="M41.9375 8.9375H39.875V6.875C39.875 6.69266 39.8026 6.5178 39.6736 6.38886C39.5447 6.25993 39.3698 6.1875 39.1875 6.1875H24.75C24.2145 6.18957 23.687 6.31686 23.2095 6.55919C22.732 6.80151 22.3178 7.15217 22 7.58312C21.6822 7.15217 21.268 6.80151 20.7905 6.55919C20.313 6.31686 19.7855 6.18957 19.25 6.1875H4.8125C4.63016 6.1875 4.4553 6.25993 4.32636 6.38886C4.19743 6.5178 4.125 6.69266 4.125 6.875V8.9375H2.0625C1.88016 8.9375 1.7053 9.00993 1.57636 9.13886C1.44743 9.2678 1.375 9.44266 1.375 9.625V37.125C1.375 37.3073 1.44743 37.4822 1.57636 37.6111C1.7053 37.7401 1.88016 37.8125 2.0625 37.8125H41.9375C42.1198 37.8125 42.2947 37.7401 42.4236 37.6111C42.5526 37.4822 42.625 37.3073 42.625 37.125V9.625C42.625 9.44266 42.5526 9.2678 42.4236 9.13886C42.2947 9.00993 42.1198 8.9375 41.9375 8.9375ZM2.75 36.4375V10.3125H4.125V34.375C4.125 34.5573 4.19743 34.7322 4.32636 34.8611C4.4553 34.9901 4.63016 35.0625 4.8125 35.0625H19.25C19.6753 35.0647 20.0896 35.1979 20.4365 35.4439C20.7834 35.6899 21.046 36.0369 21.1887 36.4375H2.75ZM21.3125 34.3956C20.7219 33.9385 19.9968 33.6896 19.25 33.6875H5.5V7.5625H19.25C19.7965 7.56413 20.3202 7.78195 20.7066 8.1684C21.093 8.55484 21.3109 9.07849 21.3125 9.625V34.3956ZM22 35.0831L21.9794 35.0625H22.0206L22 35.0831ZM22.6875 9.625C22.6891 9.07849 22.907 8.55484 23.2934 8.1684C23.6798 7.78195 24.2035 7.56413 24.75 7.5625H38.5V33.6875H24.75C24.0032 33.6896 23.2781 33.9385 22.6875 34.3956V9.625ZM41.25 36.4375H22.8113C22.954 36.0369 23.2166 35.6899 23.5635 35.4439C23.9104 35.1979 24.3247 35.0647 24.75 35.0625H39.1875C39.3698 35.0625 39.5447 34.9901 39.6736 34.8611C39.8026 34.7322 39.875 34.5573 39.875 34.375V10.3125H41.25V36.4375Z" fill="white"/>
<path d="M32.3125 8.9375C31.5832 8.9375 30.8837 9.22723 30.368 9.74296C29.8522 10.2587 29.5625 10.9582 29.5625 11.6875V28.1875C29.5625 28.3109 29.5958 28.432 29.6587 28.5381L31.7212 31.9756C31.7821 32.0782 31.8686 32.1632 31.9723 32.2222C32.076 32.2813 32.1932 32.3123 32.3125 32.3123C32.4318 32.3123 32.549 32.2813 32.6527 32.2222C32.7564 32.1632 32.8429 32.0782 32.9038 31.9756L34.9663 28.5381C35.0292 28.432 35.0625 28.3109 35.0625 28.1875V11.6875C35.0625 10.9582 34.7728 10.2587 34.257 9.74296C33.7413 9.22723 33.0418 8.9375 32.3125 8.9375ZM32.3125 30.2913L31.1781 28.3937L32.3125 27.6375L33.4469 28.3937L32.3125 30.2913ZM33.6875 26.9019L33 26.4412V17.1875H31.625V26.4412L30.9375 26.9019V15.8125H33.6875V26.9019ZM33.6875 14.4375H30.9375V13.0625H33.6875V14.4375ZM30.9375 11.6875C30.9375 11.3228 31.0824 10.9731 31.3402 10.7152C31.5981 10.4574 31.9478 10.3125 32.3125 10.3125C32.6772 10.3125 33.0269 10.4574 33.2848 10.7152C33.5426 10.9731 33.6875 11.3228 33.6875 11.6875H30.9375Z" fill="white"/>
<path d="M6.875 9.625H19.9375V11H6.875V9.625Z" fill="white"/>
<path d="M6.875 12.375H14.4375V13.75H6.875V12.375Z" fill="white"/>
<path d="M15.8125 12.375H19.9375V13.75H15.8125V12.375Z" fill="white"/>
<path d="M6.875 15.125H9.625V16.5H6.875V15.125Z" fill="white"/>
<path d="M11 15.125H19.9375V16.5H11V15.125Z" fill="white"/>
</svg>
