<svg width="40" height="40" viewBox="0 0 40 40" fill="none" xmlns="http://www.w3.org/2000/svg">
<path d="M26.2493 12.5647C26.1574 12.2819 25.9127 12.0759 25.6185 12.0332L22.2198 11.5402L20.6991 8.46095C20.5674 8.19439 20.2959 8.02563 19.9986 8.02563H19.9985C19.7011 8.02571 19.4296 8.19462 19.298 8.46134L17.779 11.5414L14.3806 12.0361C14.0863 12.0789 13.8419 12.2852 13.7501 12.568C13.6583 12.8508 13.735 13.1613 13.948 13.3688L16.4078 15.7653L15.8282 19.1502C15.778 19.4434 15.8986 19.7395 16.1393 19.9143C16.2753 20.0131 16.4364 20.0634 16.5983 20.0634C16.7227 20.0634 16.8476 20.0337 16.962 19.9735L20.0013 18.3746L23.0415 19.9719C23.3047 20.1102 23.6237 20.0871 23.8642 19.9122C24.1048 19.7373 24.2252 19.4411 24.1748 19.148L23.5934 15.7634L26.052 13.3657C26.2648 13.158 26.3413 12.8475 26.2493 12.5647ZM22.2083 14.9316C22.0243 15.1111 21.9403 15.3697 21.9838 15.6232L22.3668 17.8525L20.3644 16.8004C20.1368 16.6808 19.8648 16.6809 19.6372 16.8006L17.6354 17.8537L18.0172 15.6242C18.0606 15.3708 17.9764 15.1122 17.7923 14.9327L16.1721 13.3543L18.4105 13.0284C18.665 12.9914 18.8849 12.8314 18.9986 12.6009L19.9991 10.5723L21.0008 12.6004C21.1147 12.831 21.3347 12.9907 21.5891 13.0276L23.8277 13.3523L22.2083 14.9316Z" fill="white"/>
<path d="M37.5577 34.3257L31.1001 23.0936C33.0502 20.6594 34.2186 17.5732 34.2186 14.2188C34.2186 6.37855 27.84 0 19.9997 0C12.1595 0 5.78091 6.37855 5.78091 14.2188C5.78091 17.5732 6.9492 20.6594 8.89937 23.0936L2.44183 34.3257C2.29355 34.5837 2.30464 34.9036 2.4705 35.1507C2.63636 35.3977 2.92847 35.5291 3.22308 35.4895L8.26319 34.8127L10.1971 39.5159C10.3104 39.7913 10.5704 39.9784 10.8676 39.9983C10.8851 39.9995 10.9025 40 10.9198 40C11.1976 40 11.4561 39.8521 11.5963 39.6094L18.1153 28.3181C18.1163 28.3164 18.117 28.3146 18.118 28.3128C18.734 28.3946 19.3619 28.4376 19.9999 28.4376C20.6379 28.4376 21.2658 28.3946 21.8818 28.3128C21.8828 28.3145 21.8835 28.3163 21.8845 28.3181L28.4035 39.6094C28.5437 39.8521 28.8023 40 29.08 40C29.0973 40 29.1147 39.9995 29.1322 39.9983C29.4294 39.9784 29.6894 39.7913 29.8027 39.5159L31.7367 34.8127L36.7768 35.4895C37.072 35.5291 37.3635 35.3977 37.5294 35.1507C37.6948 34.9036 37.7059 34.5837 37.5577 34.3257ZM11.0377 37.4517L9.62984 34.0281L10.8932 31.9664C11.1187 31.5985 11.0032 31.1175 10.6353 30.8921C10.2674 30.6667 9.7864 30.7821 9.56101 31.15L8.28436 33.2333L4.58669 33.7298L9.99891 24.316C11.7717 26.072 14.0027 27.366 16.4946 28.0001L11.0377 37.4517ZM19.9997 26.8752C13.021 26.8752 7.34334 21.1975 7.34334 14.2188C7.34334 7.24012 13.021 1.56251 19.9997 1.56251C26.9784 1.56251 32.656 7.24012 32.656 14.2188C32.656 21.1975 26.9784 26.8752 19.9997 26.8752ZM31.715 33.2333L30.4384 31.15C30.213 30.7821 29.732 30.6666 29.3641 30.8921C28.9962 31.1176 28.8807 31.5985 29.1062 31.9664L30.3696 34.0281L28.9618 37.4517L23.5048 28.0001C25.9967 27.366 28.2278 26.072 30.0005 24.316L35.4127 33.7298L31.715 33.2333Z" fill="white"/>
<path d="M19.9996 4.0625C18.2562 4.0625 16.5361 4.51188 15.0252 5.3622C14.6492 5.57376 14.5159 6.05017 14.7275 6.42619C14.939 6.8022 15.4154 6.93564 15.7915 6.72392C17.0689 6.00501 18.5241 5.62501 19.9996 5.62501C24.7382 5.62501 28.5934 9.48019 28.5934 14.2188C28.5934 15.5137 28.3129 16.7578 27.7596 17.9166C27.5737 18.306 27.7386 18.7724 28.128 18.9583C28.2367 19.0102 28.3512 19.0347 28.4641 19.0347C28.7557 19.0347 29.0356 18.8706 29.1697 18.5899C29.824 17.2191 30.1559 15.7485 30.1559 14.2188C30.1559 8.61862 25.5999 4.0625 19.9996 4.0625Z" fill="white"/>
<path d="M27.2701 20.1895C26.9605 19.889 26.4659 19.8964 26.1654 20.206L26.1481 20.2238C25.8466 20.5325 25.8525 21.0272 26.1612 21.3286C26.3131 21.477 26.5101 21.5509 26.7069 21.5509C26.9099 21.5509 27.1129 21.4722 27.2659 21.3154L27.2866 21.2942C27.5871 20.9846 27.5797 20.49 27.2701 20.1895Z" fill="white"/>
<path d="M25.2024 22.0583C24.9942 21.6804 24.5191 21.5428 24.1412 21.7511C22.8809 22.4456 21.449 22.8126 20.0001 22.8126C15.2615 22.8126 11.4063 18.9574 11.4063 14.2188C11.4063 12.9775 11.665 11.7803 12.1751 10.6605C12.354 10.2678 12.1806 9.80455 11.788 9.62564C11.3953 9.44681 10.932 9.62009 10.7531 10.0128C10.1497 11.3373 9.84375 12.7524 9.84375 14.2188C9.84375 19.819 14.3999 24.3751 20.0001 24.3751C21.7119 24.3751 23.4046 23.941 24.8952 23.1195C25.2731 22.9113 25.4107 22.4362 25.2024 22.0583Z" fill="white"/>
<path d="M13.672 7.25769C13.3563 6.96354 12.862 6.9812 12.5679 7.29683L12.5506 7.3155C12.2576 7.63222 12.2767 8.12652 12.5934 8.41949C12.7437 8.55856 12.9339 8.62731 13.1238 8.62731C13.3339 8.62731 13.5435 8.54301 13.6974 8.3766L13.7112 8.36184C14.0052 8.04613 13.9877 7.55175 13.672 7.25769Z" fill="white"/>
</svg>
