<svg width="7" height="7" viewBox="0 0 7 7" fill="none" xmlns="http://www.w3.org/2000/svg">
<path d="M3.9104 3.49778L6.91102 6.49839C7.02683 6.61024 7.03004 6.79479 6.91819 6.9106C6.80634 7.02641 6.6218 7.02962 6.50599 6.91777C6.50356 6.91543 6.50117 6.91304 6.49881 6.9106L3.49818 3.90998L0.497565 6.91062C0.381754 7.02246 0.197208 7.01925 0.0853594 6.90344C-0.0237558 6.79047 -0.0237558 6.61137 0.0853594 6.49839L3.08597 3.49778L0.0853594 0.497163C-0.0284531 0.383334 -0.0284531 0.198788 0.0853594 0.0849586C0.199189 -0.0288372 0.383735 -0.0288372 0.497565 0.0849586L3.49818 3.08557L6.4988 0.0849586C6.61461 -0.0268898 6.79915 -0.0236788 6.911 0.0921321C7.0201 0.205108 7.0201 0.384205 6.911 0.497163L3.9104 3.49778Z" fill="#808184"/>
</svg>
