<svg width="28" height="28" viewBox="0 0 28 28" fill="none" xmlns="http://www.w3.org/2000/svg">
<path d="M13.9998 0C6.268 0 0 6.26818 0 13.9998C0 21.7313 6.268 28 13.9998 28C21.7315 28 28 21.7313 28 13.9998C28 6.26818 21.7315 0 13.9998 0ZM20.0523 16.6625H14.1169C14.0968 16.6625 14.0782 16.6577 14.0583 16.6569C14.0384 16.6579 14.0198 16.6625 13.9997 16.6625C13.465 16.6625 13.0314 16.229 13.0314 15.6943V5.81C13.0314 5.27529 13.465 4.84175 13.9997 4.84175C14.5344 4.84175 14.9679 5.27529 14.9679 5.81V14.726H20.0519C20.5866 14.726 21.0201 15.1595 21.0201 15.6943C21.0201 16.229 20.587 16.6625 20.0523 16.6625Z" fill="white"/>
</svg>
