<svg width="28" height="22" viewBox="0 0 28 22" fill="none" xmlns="http://www.w3.org/2000/svg">
<path d="M2.66128 6.7152C3.01203 6.9627 4.06931 7.6978 5.83318 8.9201C7.59711 10.1424 8.94839 11.0835 9.8871 11.7436C9.99023 11.8159 10.2093 11.9732 10.5445 12.2156C10.8798 12.4582 11.1583 12.6542 11.38 12.8037C11.6018 12.9532 11.87 13.1209 12.1847 13.3065C12.4994 13.492 12.796 13.6315 13.0745 13.7238C13.3531 13.8169 13.6109 13.863 13.8481 13.863H13.8637H13.8793C14.1165 13.863 14.3745 13.8169 14.653 13.7238C14.9314 13.6315 15.2283 13.4918 15.5427 13.3065C15.8572 13.1207 16.1254 12.9532 16.3472 12.8037C16.569 12.6542 16.8474 12.4582 17.1827 12.2156C17.5179 11.973 17.7372 11.8159 17.8404 11.7436C18.7892 11.0835 21.2032 9.40726 25.0816 6.71487C25.8346 6.18902 26.4637 5.55451 26.969 4.81177C27.4748 4.06936 27.7274 3.29053 27.7274 2.47572C27.7274 1.79482 27.4822 1.21195 26.9922 0.727183C26.5022 0.242304 25.9219 0 25.2516 0H2.47555C1.68133 0 1.07013 0.268155 0.642043 0.804464C0.214014 1.34088 0 2.01138 0 2.8159C0 3.46574 0.283763 4.16995 0.851018 4.92808C1.41822 5.68626 2.02184 6.28202 2.66128 6.7152Z" fill="white"/>
<path d="M26.1799 8.37056C22.7968 10.6603 20.228 12.4399 18.4747 13.7088C17.8867 14.1419 17.4097 14.4799 17.0434 14.7222C16.6771 14.9646 16.19 15.2121 15.5813 15.4647C14.9728 15.7177 14.4057 15.8438 13.8795 15.8438H13.8637H13.8482C13.3221 15.8438 12.7547 15.7177 12.1462 15.4647C11.5377 15.2121 11.0502 14.9646 10.684 14.7222C10.3179 14.4799 9.84081 14.1419 9.25291 13.7088C7.86027 12.6876 5.29698 10.908 1.56292 8.37056C0.974798 7.97884 0.453879 7.52984 0 7.02448V19.3096C0 19.9908 0.242304 20.5733 0.727183 21.0582C1.21195 21.5432 1.79487 21.7856 2.47572 21.7856H25.2518C25.9325 21.7856 26.5154 21.5432 27.0002 21.0582C27.4852 20.5732 27.7274 19.9909 27.7274 19.3096V7.02448C27.2838 7.51938 26.7682 7.96838 26.1799 8.37056Z" fill="white"/>
</svg>
