<svg width="22" height="28" viewBox="0 0 22 28" fill="none" xmlns="http://www.w3.org/2000/svg">
<path d="M11.0009 0C5.40937 0 0.860352 4.54902 0.860352 10.1405C0.860352 17.0797 9.93514 27.2668 10.3215 27.6971C10.6844 28.1013 11.318 28.1006 11.6803 27.6971C12.0666 27.2668 21.1414 17.0797 21.1414 10.1405C21.1413 4.54902 16.5924 0 11.0009 0ZM11.0009 15.2424C8.18766 15.2424 5.89898 12.9537 5.89898 10.1405C5.89898 7.32725 8.18771 5.03858 11.0009 5.03858C13.8141 5.03858 16.1027 7.32731 16.1027 10.1405C16.1027 12.9538 13.8141 15.2424 11.0009 15.2424Z" fill="white"/>
</svg>
