<svg width="22" height="30" viewBox="0 0 22 30" fill="none" xmlns="http://www.w3.org/2000/svg">
<path d="M11.0016 0C5.01066 0 0.136719 4.87395 0.136719 10.8648C0.136719 18.2996 9.85971 29.2144 10.2737 29.6755C10.6625 30.1085 11.3414 30.1078 11.7295 29.6755C12.1435 29.2144 21.8664 18.2996 21.8664 10.8648C21.8663 4.87395 16.9924 0 11.0016 0ZM11.0016 16.3312C7.9874 16.3312 5.53525 13.879 5.53525 10.8648C5.53525 7.85063 7.98746 5.39848 11.0016 5.39848C14.0157 5.39848 16.4679 7.85068 16.4679 10.8649C16.4679 13.879 14.0157 16.3312 11.0016 16.3312Z" fill="#7761AA"/>
</svg>
