<svg width="28" height="28" viewBox="0 0 28 28" fill="none" xmlns="http://www.w3.org/2000/svg">
<path d="M27.3723 22.0966L23.0481 17.7719C22.1868 16.9141 20.7605 16.9402 19.8692 17.8318L17.6907 20.0098C17.553 19.934 17.4106 19.8547 17.2608 19.7707C15.8851 19.0084 14.0022 17.9636 12.0208 15.9808C10.0336 13.9938 8.98782 12.108 8.22322 10.7314C8.14253 10.5856 8.06523 10.445 7.98889 10.3114L9.451 8.85148L10.1698 8.13176C11.0625 7.23885 11.0871 5.81294 10.2278 4.95261L5.90367 0.627481C5.04439 -0.23164 3.61743 -0.205577 2.72476 0.68733L1.50606 1.91303L1.53937 1.94609C1.13072 2.46751 0.789245 3.0689 0.535129 3.71742C0.300881 4.33473 0.15504 4.92381 0.0883534 5.51409C-0.482624 10.2476 1.68046 14.5737 7.5508 20.4441C15.6654 28.5582 22.2047 27.9452 22.4868 27.9153C23.1012 27.8418 23.6901 27.695 24.2885 27.4626C24.9314 27.2115 25.5323 26.8705 26.0534 26.4627L26.0801 26.4864L27.3147 25.2774C28.2055 24.3847 28.2312 22.9583 27.3723 22.0966Z" fill="white"/>
</svg>
